<?xml version="1.0" encoding="utf-8"?>
<!-- Generator: Adobe Illustrator 24.3.0, SVG Export Plug-In . SVG Version: 6.00 Build 0)  -->
<svg version="1.1" id="Ebene_1" xmlns="http://www.w3.org/2000/svg" xmlns:xlink="http://www.w3.org/1999/xlink" x="0px" y="0px"
	 width="493.5px" height="73.1px" viewBox="0 0 493.5 73.1" style="enable-background:new 0 0 493.5 73.1;" xml:space="preserve">
<style type="text/css">
	.st0{fill:url(#SVGID_1_);}
	.st1{enable-background:new    ;}
	.st2{fill:#5B686D;}
</style>
<linearGradient id="SVGID_1_" gradientUnits="userSpaceOnUse" x1="190.3891" y1="13.0845" x2="246.0504" y2="68.7459" gradientTransform="matrix(1 0 0 -1 0 84)">
	<stop  offset="0" style="stop-color:#00C9FF"/>
	<stop  offset="1" style="stop-color:#92FE9D"/>
</linearGradient>
<path class="st0" d="M232.3,61.7c1.9,0,3.5-1.1,4.2-2.8c0.7-1.7,0.4-3.7-0.9-5c-1.1-1.1-2.6-1.6-4.2-1.3c-1.5,0.3-2.8,1.3-3.4,2.8
	c-0.6,1.4-0.5,3.1,0.5,4.4C229.3,60.9,230.7,61.7,232.3,61.7L232.3,61.7z M204.2,24.4c-2.2,0-4.1,1.5-4.5,3.7
	c-0.5,2.2,0.7,4.3,2.7,5.1c2.1,0.8,4.4,0.1,5.6-1.7c1.2-1.9,0.9-4.3-0.6-5.8C206.5,24.9,205.3,24.4,204.2,24.4L204.2,24.4z
	 M247.6,16.9l-7.4,7.4c2.3,4,1.4,9.2-2.2,12c-3.7,2.8-8.9,2.5-12.2-0.7c-3.3-3.3-3.7-8.5-0.7-12.2c2.8-3.7,8-4.7,12-2.2l7.4-7.4
	c-0.7-0.3-1.6-0.5-2.4-0.5h-47.6c-3.4,0-6.2,2.7-6.2,6.2V67c0,0.8,0.2,1.7,0.5,2.4l7.4-7.4c-2.3-4-1.4-9.2,2.2-12s8.9-2.5,12.2,0.7
	c3.3,3.3,3.7,8.5,0.7,12.2c-2.8,3.7-8,4.7-12,2.2l-7.3,7.3c0.7,0.4,1.6,0.5,2.3,0.6H242c1.6,0,3.2-0.7,4.3-1.8
	c1.1-1.1,1.8-2.7,1.8-4.3V19.3C248.2,18.4,248,17.6,247.6,16.9z M238.8,63.6c-3.3,3.3-8.5,3.7-12.2,0.7c-3.7-2.8-4.7-8-2.3-12
	l-15.5-15.5c-4,2.3-9.1,1.4-12-2.3c-2.8-3.7-2.5-8.9,0.7-12.2c3.3-3.3,8.5-3.7,12.2-0.7c3.7,2.8,4.7,8,2.3,12l15.5,15.5
	c4-2.3,9.1-1.4,12,2.3C242.4,55.1,242.1,60.4,238.8,63.6z M207.3,60.5c1.6-1.6,1.8-4,0.6-5.8c-1.2-1.9-3.6-2.5-5.6-1.7
	c-2.1,0.8-3.2,3-2.7,5.1c0.5,2.2,2.3,3.7,4.5,3.7C205.2,61.9,206.4,61.3,207.3,60.5L207.3,60.5z M229.2,25.6c-1.6,1.6-1.8,4-0.6,5.8
	c1.2,1.9,3.6,2.5,5.6,1.7c2.1-0.8,3.2-3,2.7-5.1s-2.3-3.7-4.5-3.7C231.1,24.3,230,24.8,229.2,25.6L229.2,25.6z"/>
<g class="st1">
	<path class="st2" d="M4.4,67H4.2l-0.5,4.9H0V0h4.4v20.8l-0.2,9.4c4.9-4.1,10.7-7.5,16.6-7.5c12.8,0,19.2,9.6,19.2,24.5
		c0,16.3-9.9,25.9-21.2,25.9C14.2,73.1,8.9,70.7,4.4,67z M35.3,47.2c0-11.8-4.2-20.6-15.2-20.6c-4.8,0-10,2.8-15.7,7.9V63
		c5.3,4.5,10.5,6.2,14.2,6.2C28.3,69.2,35.3,60.2,35.3,47.2z"/>
	<path class="st2" d="M56.1,23.9h3.8l0.4,7.4h0.3c4.3-4.9,9.8-8.6,15.1-8.6c7.7,0,11.6,3.9,13.3,9.8c5.5-6,10.8-9.8,16.3-9.8
		c9.6,0,14.4,6,14.4,18.4v30.8h-4.5V41.7c0-10.2-3.4-15-10.7-15c-4.5,0-9.1,3-14.4,9v36.2h-4.4V41.7c0-10.2-3.4-15-10.8-15
		c-4.3,0-9.1,3-14.4,9v36.2h-4.4V23.9z"/>
	<path class="st2" d="M135.2,48c0-16.1,10.2-25.3,21.9-25.3c6.6,0,10.8,2.9,14.1,5.9l-2.6,3.1c-3.1-2.9-6.7-5.1-11.4-5.1
		c-9.8,0-17.4,8.7-17.4,21.4c0,12.6,6.9,21.2,17.4,21.2c5.1,0,9.5-2.5,12.8-5.5l2.3,3.1c-4.1,3.6-9.2,6.3-15.3,6.3
		C144.6,73.1,135.2,63.9,135.2,48z"/>
</g>
<g class="st1">
	<path class="st2" d="M268.3,67h-0.2l-0.5,4.9h-3.7V0h4.4v20.8l-0.2,9.4c4.9-4.1,10.7-7.5,16.6-7.5c12.8,0,19.2,9.6,19.2,24.5
		c0,16.3-9.9,25.9-21.2,25.9C278.1,73.1,272.8,70.7,268.3,67z M299.2,47.2c0-11.8-4.2-20.6-15.2-20.6c-4.8,0-10,2.8-15.7,7.9V63
		c5.3,4.5,10.5,6.2,14.2,6.2C292.2,69.2,299.2,60.2,299.2,47.2z"/>
	<path class="st2" d="M316,48c0-16.1,10-25.3,21.5-25.3c11.6,0,21.6,9.2,21.6,25.3c0,15.9-10,25.1-21.6,25.1
		C326,73.1,316,63.9,316,48z M354.5,48c0-12.7-7.3-21.4-17-21.4s-16.9,8.7-16.9,21.4c0,12.6,7.2,21.2,16.9,21.2
		C347.2,69.2,354.5,60.6,354.5,48z"/>
	<path class="st2" d="M370.5,59.9c0-10.6,9.6-15.7,31-18.1c0.1-7.3-1.9-15.2-11.4-15.2c-6.4,0-12,3.2-15.3,5.6l-2-3.3
		c3.4-2.4,10.1-6.2,17.9-6.2c11.3,0,15.2,8.2,15.2,18.5v30.7h-3.8l-0.4-6.2h-0.3c-4.9,3.9-10.7,7.4-17,7.4
		C376.8,73.1,370.5,69,370.5,59.9z M401.5,61.5V45.2c-19.8,2.3-26.5,6.9-26.5,14.5c0,6.9,4.7,9.6,10.2,9.6S395.5,66.6,401.5,61.5z"
		/>
	<path class="st2" d="M424.9,23.9h3.8l0.4,8.9h0.3c3.2-5.9,7.9-10.1,13.6-10.1c1.8,0,3.2,0.2,4.8,1l-1,4c-1.6-0.6-2.5-0.8-4.4-0.8
		c-4.3,0-9.4,3.3-13.1,12.3v32.7h-4.4L424.9,23.9L424.9,23.9z"/>
	<path class="st2" d="M453.5,48c0-15.5,9.9-25.3,21.3-25.3c5.8,0,9.7,2.2,14.5,5.9l-0.2-8.8V0h4.4v71.9h-3.8l-0.4-6.2H489
		c-3.9,3.9-9.2,7.4-15.6,7.4C461.3,73.1,453.5,64.2,453.5,48z M489.1,61.3V32.8c-5.1-4.5-9.3-6.2-14-6.2c-9.6,0-16.9,9.3-16.9,21.4
		c0,12.7,5.6,21.2,15.8,21.2C479.3,69.2,484,66.4,489.1,61.3z"/>
</g>
</svg>
