<?xml version="1.0" encoding="utf-8"?>
<!-- Generator: Adobe Illustrator 24.3.0, SVG Export Plug-In . SVG Version: 6.00 Build 0)  -->
<svg version="1.1" id="Ebene_1" xmlns="http://www.w3.org/2000/svg" xmlns:xlink="http://www.w3.org/1999/xlink" x="0px" y="0px"
	 width="493.5px" height="82px" viewBox="0 0 493.5 82" style="enable-background:new 0 0 493.5 82;" xml:space="preserve">
<style type="text/css">
	.st0{fill:url(#SVGID_1_);}
	.st1{fill:url(#SVGID_2_);}
	.st2{enable-background:new    ;}
	.st3{fill:#5B686D;}
</style>
<text transform="matrix(1 0 0 1 551.9238 71.6033)" class="st3" style="font-family:'SourceSansPro-Light'; font-size:100px; letter-spacing:1;">bmc</text>
<text transform="matrix(1 0 0 1 819.6238 71.6033)" class="st3" style="font-family:'SourceSansPro-Light'; font-size:100px; letter-spacing:1;">board</text>
<linearGradient id="SVGID_1_" gradientUnits="userSpaceOnUse" x1="750.8378" y1="74.9385" x2="810.309" y2="15.4673">
	<stop  offset="0" style="stop-color:#00C9FF"/>
	<stop  offset="1" style="stop-color:#92FE9D"/>
</linearGradient>
<path class="st0" d="M795.6,65.1c2,0,3.7-1.2,4.5-3c0.8-1.8,0.4-3.9-1-5.3c-1.2-1.2-2.8-1.7-4.5-1.4c-1.6,0.3-3,1.4-3.6,3
	c-0.6,1.5-0.5,3.3,0.5,4.7C792.4,64.3,793.9,65.1,795.6,65.1L795.6,65.1z M765.6,25.3c-2.4,0-4.4,1.6-4.8,3.9
	c-0.5,2.3,0.8,4.6,2.9,5.5c2.2,0.9,4.7,0.1,6-1.8c1.3-2,1-4.6-0.6-6.2C768.1,25.8,766.8,25.3,765.6,25.3L765.6,25.3z M812,17.2
	l-7.9,7.9c2.5,4.3,1.5,9.8-2.4,12.8c-3.9,3-9.5,2.7-13-0.8c-3.5-3.5-3.9-9.1-0.8-13c3-3.9,8.5-5,12.8-2.4l7.9-7.9
	c-0.8-0.3-1.7-0.5-2.6-0.5h-50.9c-3.6,0-6.6,2.9-6.6,6.6v50.9c0,0.9,0.2,1.8,0.5,2.6l7.9-7.9c-2.5-4.3-1.5-9.8,2.4-12.8
	c3.9-3,9.5-2.7,13,0.8c3.5,3.5,3.9,9.1,0.8,13c-3,3.9-8.5,5-12.8,2.4l-7.8,7.8c0.8,0.4,1.7,0.5,2.5,0.6H806c1.7,0,3.4-0.7,4.6-1.9
	c1.2-1.2,1.9-2.9,1.9-4.6V19.8C812.6,18.9,812.4,18,812,17.2z M802.6,67.2c-3.5,3.5-9.1,3.9-13,0.8c-3.9-3-5-8.5-2.5-12.8
	l-16.6-16.6c-4.3,2.5-9.7,1.5-12.8-2.5c-3-3.9-2.7-9.5,0.8-13c3.5-3.5,9.1-3.9,13-0.8c3.9,3,5,8.5,2.5,12.8l16.6,16.6
	c4.3-2.5,9.7-1.5,12.8,2.5C806.4,58.1,806.1,63.7,802.6,67.2z M768.9,63.8c1.7-1.7,1.9-4.3,0.6-6.2c-1.3-2-3.8-2.7-6-1.8
	c-2.2,0.9-3.4,3.2-2.9,5.5c0.5,2.3,2.5,4,4.8,3.9C766.7,65.3,768,64.7,768.9,63.8L768.9,63.8z M792.3,26.6c-1.7,1.7-1.9,4.3-0.6,6.2
	c1.3,2,3.8,2.7,6,1.8c2.2-0.9,3.4-3.2,2.9-5.5c-0.5-2.3-2.5-4-4.8-4C794.4,25.2,793.2,25.7,792.3,26.6L792.3,26.6z"/>
<linearGradient id="SVGID_2_" gradientUnits="userSpaceOnUse" x1="183.9755" y1="47.9028" x2="252.215" y2="47.9028">
	<stop  offset="0" style="stop-color:#00C9FF"/>
	<stop  offset="1" style="stop-color:#92FE9D"/>
</linearGradient>
<path class="st1" d="M228.5,55.9l-18.4-18.4c2.8-4,2-9.5-1.7-12.7c-3.8-3.1-9.3-2.9-12.8,0.6c-3.5,3.5-3.7,9-0.6,12.8
	c3.1,3.8,8.6,4.5,12.7,1.7l18.4,18.4c-2.8,4-2,9.5,1.7,12.7c3.8,3.1,9.3,2.9,12.8-0.6c3.5-3.5,3.7-9,0.6-12.8
	C238.1,53.9,232.6,53.1,228.5,55.9z M198.1,36.4c-1.7-1.7-2.3-4.3-1.3-6.6c0.9-2.3,3.1-3.7,5.6-3.7c2.4,0,4.6,1.5,5.6,3.7
	c0.9,2.3,0.4,4.9-1.3,6.6C204.2,38.7,200.4,38.7,198.1,36.4L198.1,36.4z M238.1,67.9c-1.7,1.7-4.3,2.3-6.6,1.3
	c-2.3-0.9-3.7-3.1-3.7-5.6c0-2.4,1.5-4.6,3.7-5.6c2.3-0.9,4.9-0.4,6.6,1.3C240.4,61.8,240.4,65.6,238.1,67.9L238.1,67.9z
	 M239.3,24.2c-4-2.8-9.5-2-12.7,1.7c-3.1,3.8-2.9,9.3,0.6,12.8c3.5,3.5,9,3.7,12.8,0.6c3.8-3.1,4.5-8.6,1.7-12.7l10.4-10.4l-2.4-2.4
	L239.3,24.2z M238.2,36.2c-1.7,1.7-4.3,2.3-6.6,1.3c-2.3-0.9-3.7-3.1-3.7-5.6c0-2.4,1.5-4.6,3.7-5.6c2.3-0.9,4.9-0.4,6.6,1.3
	C240.6,30.1,240.6,33.9,238.2,36.2L238.2,36.2z M196.8,71.6c4,2.8,9.5,2,12.7-1.7c3.1-3.8,2.9-9.3-0.6-12.8c-3.5-3.5-9-3.7-12.8-0.6
	c-3.8,3.1-4.5,8.6-1.7,12.7L184,79.6l2.4,2.4L196.8,71.6z M198,59.6c1.7-1.7,4.3-2.3,6.6-1.3c2.3,0.9,3.7,3.1,3.7,5.6
	c0,2.4-1.5,4.6-3.7,5.6c-2.3,0.9-4.9,0.4-6.6-1.3c-1.1-1.1-1.8-2.6-1.8-4.2C196.2,62.2,196.8,60.7,198,59.6z"/>
<g class="st2">
	<path class="st3" d="M4.4,67H4.2l-0.5,4.9H0V0h4.4v20.8l-0.2,9.4c4.9-4.1,10.7-7.5,16.6-7.5c12.8,0,19.2,9.6,19.2,24.5
		c0,16.3-9.9,25.9-21.2,25.9C14.2,73.1,8.9,70.7,4.4,67z M35.3,47.2c0-11.8-4.2-20.6-15.2-20.6c-4.8,0-10,2.8-15.7,7.9V63
		c5.3,4.5,10.5,6.2,14.2,6.2C28.3,69.2,35.3,60.2,35.3,47.2z"/>
	<path class="st3" d="M56.1,23.9h3.8l0.4,7.4h0.3c4.3-4.9,9.8-8.6,15.1-8.6c7.7,0,11.6,3.9,13.3,9.8c5.5-6,10.8-9.8,16.3-9.8
		c9.6,0,14.4,6,14.4,18.4v30.8h-4.5V41.7c0-10.2-3.4-15-10.7-15c-4.5,0-9.1,3-14.4,9v36.2h-4.4V41.7c0-10.2-3.4-15-10.8-15
		c-4.3,0-9.1,3-14.4,9v36.2h-4.4V23.9z"/>
	<path class="st3" d="M135.2,48c0-16.1,10.2-25.3,21.9-25.3c6.6,0,10.8,2.9,14.1,5.9l-2.6,3.1c-3.1-2.9-6.7-5.1-11.4-5.1
		c-9.8,0-17.4,8.7-17.4,21.4c0,12.6,6.9,21.2,17.4,21.2c5.1,0,9.5-2.5,12.8-5.5l2.3,3.1c-4.1,3.6-9.2,6.3-15.3,6.3
		C144.6,73.1,135.2,63.9,135.2,48z"/>
</g>
<g class="st2">
	<path class="st3" d="M268.3,67h-0.2l-0.5,4.9h-3.7V0h4.4v20.8l-0.2,9.4c4.9-4.1,10.7-7.5,16.6-7.5c12.8,0,19.2,9.6,19.2,24.5
		c0,16.3-9.9,25.9-21.2,25.9C278.1,73.1,272.8,70.7,268.3,67z M299.2,47.2c0-11.8-4.2-20.6-15.2-20.6c-4.8,0-10,2.8-15.7,7.9V63
		c5.3,4.5,10.5,6.2,14.2,6.2C292.2,69.2,299.2,60.2,299.2,47.2z"/>
	<path class="st3" d="M316,48c0-16.1,10-25.3,21.5-25.3c11.6,0,21.6,9.2,21.6,25.3c0,15.9-10,25.1-21.6,25.1
		C326,73.1,316,63.9,316,48z M354.5,48c0-12.7-7.3-21.4-17-21.4c-9.7,0-16.9,8.7-16.9,21.4c0,12.6,7.2,21.2,16.9,21.2
		C347.2,69.2,354.5,60.6,354.5,48z"/>
	<path class="st3" d="M370.5,59.9c0-10.6,9.6-15.7,31-18.1c0.1-7.3-1.9-15.2-11.4-15.2c-6.4,0-12,3.2-15.3,5.6l-2-3.3
		c3.4-2.4,10.1-6.2,17.9-6.2c11.3,0,15.2,8.2,15.2,18.5v30.7h-3.8l-0.4-6.2h-0.3c-4.9,3.9-10.7,7.4-17,7.4
		C376.8,73.1,370.5,69,370.5,59.9z M401.5,61.5V45.2c-19.8,2.3-26.5,6.9-26.5,14.5c0,6.9,4.7,9.6,10.2,9.6
		C390.7,69.3,395.5,66.6,401.5,61.5z"/>
	<path class="st3" d="M424.9,23.9h3.8l0.4,8.9h0.3c3.2-5.9,7.9-10.1,13.6-10.1c1.8,0,3.2,0.2,4.8,1l-1,4c-1.6-0.6-2.5-0.8-4.4-0.8
		c-4.3,0-9.4,3.3-13.1,12.3v32.7h-4.4V23.9z"/>
	<path class="st3" d="M453.5,48c0-15.5,9.9-25.3,21.3-25.3c5.8,0,9.7,2.2,14.5,5.9l-0.2-8.8V0h4.4v71.9h-3.8l-0.4-6.2H489
		c-3.9,3.9-9.2,7.4-15.6,7.4C461.3,73.1,453.5,64.2,453.5,48z M489.1,61.3V32.8c-5.1-4.5-9.3-6.2-14-6.2c-9.6,0-16.9,9.3-16.9,21.4
		c0,12.7,5.6,21.2,15.8,21.2C479.3,69.2,484,66.4,489.1,61.3z"/>
</g>
</svg>
